<svg width="181" height="70" viewBox="0 0 181 70" fill="none" xmlns="http://www.w3.org/2000/svg">
<g clip-path="url(#clip0)">
<path d="M79.4763 0.077038C79.2392 0.209103 78.991 0.341168 78.7925 0.517255C78.3127 0.946466 77.8329 1.36467 77.4083 1.84341C76.8293 2.50373 76.151 3.02649 75.4175 3.49973C72.7154 5.23308 69.8423 6.61426 66.8699 7.80285C61.3939 10.0039 55.7084 11.5172 49.9567 12.7663C43.8024 14.1035 37.5709 14.9619 31.3229 15.7102C27.2917 16.189 23.266 16.6787 19.2735 17.4106C15.8158 18.0489 12.4078 18.8743 9.11007 20.1014C7.52186 20.6902 5.98881 21.3835 4.57156 22.319C2.79586 23.4966 1.41169 25.0153 0.545902 26.9798C0.275687 27.6016 0.0220159 28.6416 -4.25231e-05 29.3184C-0.0110717 29.8467 0.0440742 30.3695 0.319804 30.8427C0.336348 30.8702 0.37495 30.8922 0.419067 30.9032C0.617592 31.1288 0.887807 31.2829 1.1856 31.3214C1.8308 31.3985 2.69108 30.8207 2.47601 30.0833C2.31609 29.5386 1.95764 29.0158 1.34 28.9938C1.0367 28.9828 0.727884 29.0598 0.490756 29.2194C0.512815 28.8562 0.601048 28.4985 0.700311 28.1464C1.21317 26.3415 2.26646 24.8723 3.69474 23.6727C5.10647 22.4841 6.72776 21.6532 8.42626 20.9708C10.7589 20.0244 13.1688 19.3255 15.6118 18.7532C20.6356 17.5757 25.7531 16.9484 30.8651 16.3155C33.8927 15.9414 36.9312 15.5947 39.9532 15.1325C45.6332 14.274 51.2636 13.1295 56.8168 11.6327C62.6457 10.0645 68.3313 8.122 73.6915 5.30461C74.0224 5.13403 74.3091 4.74334 74.7779 4.95794C74.5904 5.26059 74.3974 5.56324 74.1988 5.86039C74.1271 5.97044 74.0334 6.07499 73.9562 6.19055C67.6751 14.6482 61.3939 23.1004 55.2893 31.6791C52.0688 36.2133 48.7379 40.665 45.4457 45.1553C44.5744 46.3438 43.5597 47.4059 42.4789 48.4129C41.1499 49.651 39.9201 50.9991 38.8227 52.4463C38.6297 52.6995 38.4477 52.9581 38.2878 53.2332C38.0948 53.5689 38.0727 53.9266 38.3264 54.2567C38.547 54.5319 38.9385 54.6254 39.33 54.4273C39.8153 54.1797 40.2951 53.9046 40.7308 53.5799C42.2859 52.4408 43.6204 51.0707 44.9329 49.673C47.6736 46.729 50.1883 43.6035 52.5706 40.3734C53.2765 39.4159 54.0706 38.541 54.9419 37.7321C60.9914 32.1138 67.3001 26.7817 73.8128 21.7027C76.8017 19.3695 79.8899 17.174 83.2042 15.3306C84.4284 14.6427 85.7409 14.0869 87.0313 13.5147C87.5276 13.289 88.0735 13.1515 88.6085 13.0524C89.6617 12.8598 90.0257 13.223 89.943 14.3126C89.9209 14.5382 89.8878 14.7693 89.8272 14.9839C89.5735 15.8148 89.3805 16.6677 89.011 17.4436C88.2886 18.9678 87.5166 20.4646 86.6784 21.9283C85.228 24.4596 83.7446 26.9688 82.2336 29.4615C77.9708 36.538 74.1768 43.8511 70.7081 51.3403C69.6327 53.6514 68.6787 56.0176 67.9894 58.4828C67.5923 59.897 67.3056 61.3167 67.2835 62.1531C67.278 63.7599 67.3552 64.6294 67.7192 65.5208C67.9232 66.0215 68.221 66.4838 68.5684 66.902C69.8478 68.4372 73.4488 71.7499 78.9745 68.8279C79.0572 68.7839 79.3936 68.5693 79.2888 68.4097C79.2447 68.3437 78.991 68.4152 78.9138 68.4647C73.493 71.6508 69.8754 67.4688 69.8754 67.4688C68.0776 65.5483 68.8 62.0046 68.8 62.0046C68.9875 60.7389 69.368 59.5063 69.8864 58.3453C70.7357 56.4358 71.5518 54.4934 72.561 52.661C76.1786 46.0742 79.8513 39.515 83.524 32.9502C85.3493 29.6816 87.2298 26.457 89.0331 23.1884C89.75 21.8733 90.3676 20.4921 90.9411 19.1109C91.3216 18.192 91.6084 17.2125 91.8124 16.2385C92.0441 15.1655 92.0771 14.0649 91.6691 13.0084C91.283 12.0069 90.2077 11.4236 89.1379 11.5832C88.6195 11.6602 88.0846 11.7978 87.6103 12.0069C86.6508 12.4196 85.7078 12.8929 84.7924 13.3991C82.0351 14.9234 79.4432 16.7172 76.9065 18.5772C72.4838 21.8072 68.2817 25.318 64.1016 28.8507C61.8737 30.7381 59.6954 32.6806 57.4951 34.6011C57.2911 34.7771 57.0815 34.9532 56.8665 35.1128C56.8223 35.1458 56.69 35.1238 56.6514 35.0798C56.6128 35.0248 56.5962 34.9037 56.6293 34.8487C56.8223 34.5405 57.0264 34.2379 57.2359 33.9352C59.9105 30.1329 62.6016 26.3415 65.2486 22.5171C69.0482 17.0529 72.8257 11.5722 76.5922 6.086C77.6234 4.58376 78.6215 3.0485 79.8127 1.66732C80.0222 1.4252 80.2263 1.16107 80.3311 0.874931C80.3972 0.704347 80.3311 0.418206 80.2208 0.258627C80.0939 0.0990488 79.934 0 79.752 0C79.6638 0 79.57 0.0220108 79.4763 0.077038Z" fill="white"/>
<path d="M111.792 42.9486C110.375 44.792 107.849 46.5694 103.481 47.4003C102.913 47.5103 102.522 47.5544 102.285 47.5544C100.112 47.5544 110.104 43.5814 111.792 42.9486ZM87.6655 38.5134C87.6544 38.4309 87.6875 38.3318 87.7206 38.2548C88.2555 37.1102 89.0607 36.2298 90.2463 35.7455C90.3897 35.6795 90.6378 35.674 90.7205 35.7565C90.8143 35.8501 90.7978 36.0812 90.7812 36.2463C90.7316 36.7745 90.4062 37.1542 90.0367 37.5009C89.4357 38.0622 88.7077 38.4309 87.9357 38.706C87.8971 38.717 87.8419 38.7115 87.8033 38.717C87.7592 38.6345 87.6765 38.5739 87.6655 38.5134ZM107.546 33.2143C107.948 32.0422 108.505 31.0517 108.99 29.9952C110.54 26.5725 112.15 23.1828 114.064 19.9417C116.325 16.1119 118.823 12.4526 121.602 8.98034C122.424 7.95133 123.279 6.95534 124.315 6.13544C124.779 5.77226 125.253 5.40908 125.76 5.13394C127.117 4.40208 128.396 4.79278 129.069 6.16845C129.361 6.76825 129.483 7.45059 129.681 8.0889C129.659 8.99135 129.527 9.83326 129.257 10.6587C128.573 12.7497 127.519 14.6426 126.207 16.387C125.336 17.5426 124.387 18.6486 123.4 19.6996C121.475 21.7466 119.374 23.6066 117.202 25.3949C114.924 27.2714 112.702 29.2028 110.446 31.0957C109.547 31.8496 108.615 32.5705 107.694 33.3023C107.49 33.5389 107.402 33.6215 107.369 33.6215C107.303 33.6215 107.535 33.2308 107.546 33.2143ZM125.462 3.90684C124.999 4.08293 124.564 4.33055 124.139 4.59468C123.053 5.26601 122.093 6.09692 121.227 7.03238C119.628 8.76023 118.134 10.5761 116.716 12.4581C114.031 16.0073 111.632 19.7326 109.636 23.7001C107.557 27.8381 105.654 32.0642 103.9 36.3618C102.031 37.5339 99.395 39.5919 97.9171 40.3623C96.6212 41.0391 95.248 41.4518 93.7977 41.6279C93.3951 41.683 92.9871 41.7325 92.6451 41.7765C92.3143 41.826 92.0441 41.8866 91.7793 41.9086C90.6875 41.9966 89.6011 42.0241 88.5423 41.727C88.1177 41.6114 87.682 41.4078 87.3567 41.1217C86.7776 40.6209 86.9761 39.79 87.6765 39.5314C87.9743 39.4158 88.2776 39.3333 88.5699 39.2177C89.4246 38.8821 90.1691 38.3758 90.7922 37.699C91.1948 37.2533 91.4761 36.7525 91.5533 36.1417C91.6856 34.9752 91.0514 34.3864 89.9375 34.733C89.386 34.9036 88.8346 35.1567 88.3603 35.4814C87.2188 36.2738 86.4137 37.3633 85.9118 38.6565C85.024 40.9401 85.9615 42.6184 88.3934 43.0091C89.5459 43.1907 90.7316 43.2567 91.9062 43.0091C92.8382 42.822 93.7646 42.6019 94.6966 42.4203C95.8602 42.2002 96.93 41.738 97.9722 41.1712C101.264 39.3883 102.522 38.3538 103.404 37.5614C102.577 39.713 101.992 41.9361 101.314 44.1317C101.231 44.3903 101.187 44.6599 101.165 44.9351C101.143 45.1056 101.171 45.2927 101.215 45.4578C101.303 45.7385 101.535 45.9145 101.81 45.9421C102.114 45.9751 102.296 45.777 102.4 45.4908C102.505 45.1992 102.616 44.8965 102.798 44.6544C103.829 43.2567 105.047 42.0516 106.437 41.0171C106.437 41.0171 112.432 36.703 113.137 37.1817C113.49 37.4239 113.744 39.4599 112.58 41.694C109.542 43.1247 104.59 45.4688 102.924 46.3272C99.9079 47.8845 99.4832 49.0511 104.49 48.3412C108.759 47.7359 112.829 44.792 114.455 41.6775C115.172 41.4188 115.884 41.1602 116.578 40.8576C117.251 40.5659 117.896 40.2192 118.509 39.834C118.393 40.0982 118.294 40.3733 118.2 40.6539C118.023 41.2097 117.957 41.7985 117.891 42.1232C117.974 43.9336 119.253 44.7425 120.659 44.0491C121.222 43.774 121.74 43.3668 122.159 42.9101C123.483 41.5069 124.42 39.8671 124.878 37.9741C124.955 37.666 125.027 37.3578 125.087 37.0497C125.148 36.7966 125.258 36.637 125.551 36.7525C127.878 37.666 130.326 37.798 132.775 37.699C134.948 37.6165 137.115 37.4789 139.266 37.0882C141.808 36.6315 144.328 36.0922 146.787 35.2888C150.399 34.1112 153.962 32.7796 157.64 31.7726C160.568 30.9747 163.502 30.2208 166.508 29.7531C167.258 29.632 168.046 29.6595 168.807 29.6925C177.774 30.0612 179.55 31.2773 179.55 31.2773H179.555C178.993 31.8056 178.915 33.0767 179.919 33.1868C181.121 33.3188 181.259 31.8551 180.647 31.2773H180.664C178.066 29.0652 169.656 28.9442 169.656 28.9442C168.802 28.9057 167.936 28.9332 167.081 29.0102C164.589 29.2303 162.19 29.9017 159.774 30.5345C156.002 31.525 152.324 32.7906 148.646 34.0672C145.514 35.1567 142.315 35.9711 139.034 36.4279C135.94 36.8461 132.813 37.1267 129.681 36.8791C128.154 36.758 126.604 36.6095 125.292 35.6685C125.06 35.5089 124.707 35.652 124.635 35.9326C124.503 36.4554 124.393 36.9891 124.288 37.5174C123.913 39.3003 123.042 40.8025 121.718 42.0461C121.321 42.4148 120.874 42.723 120.334 42.8715C120.053 42.9431 119.76 42.7065 119.827 42.4203C119.92 41.9801 120.036 41.5399 120.196 41.1217C120.852 39.4324 121.966 38.0842 123.301 36.8901C123.538 36.681 123.792 36.4884 124.007 36.2518C124.238 36.0042 124.167 35.6465 123.902 35.4154C123.632 35.1843 123.317 35.1292 123.008 35.2283C122.667 35.3383 122.319 35.4814 122.032 35.685C121.045 36.3673 120.202 37.1707 119.523 38.0952C118.2 39.1627 116.7 39.9496 115.073 40.5274C115.073 40.5274 115.023 40.5494 114.935 40.5934C115.454 39.0251 115.294 37.4789 114.169 36.2243C112.299 34.1442 108.301 37.8971 108.301 37.8971C107.672 38.3373 105.599 40.6099 104.998 41.0942C104.678 41.3418 104.397 41.6444 104.104 41.9306C103.696 42.3268 103.625 42.3488 103.614 42.1837C103.603 42.0186 103.641 41.8315 103.707 41.683C104.413 40.1147 105.169 38.5684 105.831 36.9836C106.261 35.9491 106.862 35.1127 107.711 34.3919C111.273 31.3819 114.803 28.3389 118.343 25.3014C119.203 24.564 120.069 23.8377 120.896 23.0563C122.981 21.1083 124.994 19.0833 126.692 16.7777C128.065 14.9068 129.223 12.9203 129.924 10.6917C130.211 9.78374 130.42 8.85928 130.326 7.98435C130.271 7.02688 130.067 6.19597 129.637 5.43109C128.981 4.26452 127.966 3.63721 126.803 3.63721C126.367 3.64821 125.92 3.73075 125.462 3.90684Z" fill="white"/>
</g>
<defs>
<clipPath id="clip0">
<rect width="181" height="70" fill="white"/>
</clipPath>
</defs>
</svg>
