<?xml version="1.0" encoding="utf-8"?>
<!-- Generator: Adobe Illustrator 25.2.1, SVG Export Plug-In . SVG Version: 6.00 Build 0)  -->
<svg version="1.1" id="Layer_1" xmlns="http://www.w3.org/2000/svg" xmlns:xlink="http://www.w3.org/1999/xlink" x="0px" y="0px"
	 viewBox="0 0 1920 1080" style="enable-background:new 0 0 1920 1080;" xml:space="preserve">
<style type="text/css">
	.st0{clip-path:url(#SVGID_2_);fill:url(#SVGID_3_);}
	.st1{clip-path:url(#SVGID_5_);fill:url(#SVGID_6_);}
</style>
<g>
	<defs>
		<path id="SVGID_1_" d="M951.35,475.43c-0.43,0.24-0.88,0.48-1.24,0.8c-0.87,0.78-1.74,1.54-2.51,2.41
			c-1.05,1.2-2.28,2.15-3.61,3.01c-4.9,3.15-10.11,5.66-15.5,7.82c-9.93,4-20.24,6.75-30.67,9.02c-11.16,2.43-22.46,3.99-33.79,5.35
			c-7.31,0.87-14.61,1.76-21.85,3.09c-6.27,1.16-12.45,2.66-18.43,4.89c-2.88,1.07-5.66,2.33-8.23,4.03
			c-3.22,2.14-5.73,4.9-7.3,8.47c-0.49,1.12-0.96,3.02-0.99,4.25c-0.02,0.96,0.08,1.91,0.58,2.77c0.03,0.05,0.1,0.09,0.18,0.11
			c0.36,0.41,0.85,0.69,1.39,0.76c1.16,0.14,2.73-0.91,2.34-2.25c-0.29-0.99-0.94-1.94-2.06-1.98c-0.55-0.02-1.11,0.12-1.54,0.41
			c0.04-0.66,0.2-1.31,0.38-1.95c0.93-3.28,2.84-5.95,5.43-8.13c2.56-2.16,5.5-3.67,8.58-4.91c4.23-1.72,8.6-2.99,13.03-4.03
			c9.11-2.14,18.39-3.28,27.66-4.43c5.49-0.68,11-1.31,16.48-2.15c10.3-1.56,20.51-3.64,30.58-6.36c10.57-2.85,20.88-6.38,30.6-11.5
			c0.6-0.31,1.12-1.02,1.97-0.63c-0.34,0.55-0.69,1.1-1.05,1.64c-0.13,0.2-0.3,0.39-0.44,0.6c-11.39,15.37-22.78,30.73-33.85,46.32
			c-5.84,8.24-11.88,16.33-17.85,24.49c-1.58,2.16-3.42,4.09-5.38,5.92c-2.41,2.25-4.64,4.7-6.63,7.33
			c-0.35,0.46-0.68,0.93-0.97,1.43c-0.35,0.61-0.39,1.26,0.07,1.86c0.4,0.5,1.11,0.67,1.82,0.31c0.88-0.45,1.75-0.95,2.54-1.54
			c2.82-2.07,5.24-4.56,7.62-7.1c4.97-5.35,9.53-11.03,13.85-16.9c1.28-1.74,2.72-3.33,4.3-4.8c10.97-10.21,22.41-19.9,34.22-29.13
			c5.42-4.24,11.02-8.23,17.03-11.58c2.22-1.25,4.6-2.26,6.94-3.3c0.9-0.41,1.89-0.66,2.86-0.84c1.91-0.35,2.57,0.31,2.42,2.29
			c-0.04,0.41-0.1,0.83-0.22,1.22c-0.46,1.51-0.81,3.06-1.48,4.47c-1.31,2.77-2.71,5.49-4.23,8.15c-2.63,4.6-5.32,9.16-8.06,13.69
			c-7.73,12.86-14.61,26.15-20.9,39.76c-1.95,4.2-3.68,8.5-4.93,12.98c-0.72,2.57-1.24,5.15-1.28,6.67
			c-0.01,2.92,0.13,4.5,0.79,6.12c0.37,0.91,0.91,1.75,1.54,2.51c2.32,2.79,8.85,8.81,18.87,3.5c0.15-0.08,0.76-0.47,0.57-0.76
			c-0.08-0.12-0.54,0.01-0.68,0.1c-9.83,5.78-16.39-1.81-16.39-1.81c-3.27-3.49-1.95-9.93-1.95-9.93c0.34-2.3,1.03-4.54,1.97-6.65
			c1.54-3.47,3.02-7,4.85-10.33c6.56-11.97,13.22-23.89,19.88-35.82c3.31-5.94,6.72-11.8,9.99-17.74c1.3-2.39,2.42-4.9,3.46-7.41
			c0.69-1.67,1.21-3.45,1.58-5.22c0.42-1.95,0.48-3.95-0.26-5.87c-0.7-1.82-2.65-2.88-4.59-2.59c-0.94,0.14-1.91,0.39-2.77,0.77
			c-1.74,0.75-3.45,1.61-5.11,2.53c-5,2.77-9.7,6.03-14.3,9.41c-8.02,5.87-15.64,12.25-23.22,18.67
			c-4.04,3.43-7.99,6.96-11.98,10.45c-0.37,0.32-0.75,0.64-1.14,0.93c-0.08,0.06-0.32,0.02-0.4-0.06c-0.07-0.1-0.09-0.32-0.04-0.42
			c0.35-0.56,0.72-1.11,1.1-1.66c4.85-6.91,9.73-13.8,14.53-20.75c6.89-9.93,13.74-19.89,20.57-29.86c1.87-2.73,3.68-5.52,5.84-8.03
			c0.38-0.44,0.75-0.92,0.94-1.44c0.12-0.31,0-0.83-0.2-1.12c-0.19-0.28-0.48-0.46-0.81-0.46
			C951.69,475.3,951.52,475.34,951.35,475.43"/>
	</defs>
	<clipPath id="SVGID_2_">
		<use xlink:href="#SVGID_1_"  style="overflow:visible;"/>
	</clipPath>
	
		<linearGradient id="SVGID_3_" gradientUnits="userSpaceOnUse" x1="0.3364" y1="1081.5149" x2="1.3364" y2="1081.5149" gradientTransform="matrix(-494.1527 380.0721 380.0721 494.1527 -409684.6875 -534260.9375)">
		<stop  offset="0" style="stop-color:#926949"/>
		<stop  offset="0.5102" style="stop-color:#F1B177"/>
		<stop  offset="1" style="stop-color:#926949"/>
	</linearGradient>
	<polygon class="st0" points="1037.19,557.23 869.27,686.39 744.19,523.77 912.11,394.61 	"/>
</g>
<g>
	<defs>
		<path id="SVGID_4_" d="M1009.95,553.34c-2.57,3.35-7.15,6.58-15.07,8.09c-1.03,0.2-1.74,0.28-2.17,0.28c0,0,0,0,0,0
			C988.78,561.72,1006.89,554.5,1009.95,553.34 M966.2,545.28c-0.02-0.15,0.04-0.33,0.1-0.47c0.97-2.08,2.43-3.68,4.58-4.56
			c0.26-0.12,0.71-0.13,0.86,0.02c0.17,0.17,0.14,0.59,0.11,0.89c-0.09,0.96-0.68,1.65-1.35,2.28c-1.09,1.02-2.41,1.69-3.81,2.19
			c-0.07,0.02-0.17,0.01-0.24,0.02C966.37,545.51,966.22,545.4,966.2,545.28 M1002.25,535.66c0.73-2.13,1.74-3.93,2.62-5.85
			c2.81-6.22,5.73-12.38,9.2-18.27c4.1-6.96,8.63-13.61,13.67-19.92c1.49-1.87,3.04-3.68,4.92-5.17c0.84-0.66,1.7-1.32,2.62-1.82
			c2.46-1.33,4.78-0.62,6,1.88c0.53,1.09,0.75,2.33,1.11,3.49c-0.04,1.64-0.28,3.17-0.77,4.67c-1.24,3.8-3.15,7.24-5.53,10.41
			c-1.58,2.1-3.3,4.11-5.09,6.02c-3.49,3.72-7.3,7.1-11.24,10.35c-4.13,3.41-8.16,6.92-12.25,10.36c-1.63,1.37-3.32,2.68-4.99,4.01
			c-0.37,0.43-0.53,0.58-0.59,0.58C1001.82,536.4,1002.23,535.68,1002.25,535.66 M1034.74,482.39c-0.84,0.32-1.63,0.77-2.4,1.25
			c-1.97,1.22-3.71,2.73-5.28,4.43c-2.9,3.14-5.61,6.44-8.18,9.86c-4.87,6.45-9.22,13.22-12.84,20.43
			c-3.77,7.52-7.22,15.2-10.4,23.01c-3.39,2.13-8.17,5.87-10.85,7.27c-2.35,1.23-4.84,1.98-7.47,2.3c-0.73,0.1-1.47,0.19-2.09,0.27
			c-0.6,0.09-1.09,0.2-1.58,0.24c-1.98,0.16-3.95,0.21-5.87-0.33c-0.77-0.21-1.56-0.58-2.15-1.1c-1.05-0.91-0.69-2.42,0.58-2.89
			c0.54-0.21,1.09-0.36,1.62-0.57c1.55-0.61,2.9-1.53,4.03-2.76c0.73-0.81,1.24-1.72,1.38-2.83c0.24-2.12-0.91-3.19-2.93-2.56
			c-1,0.31-2,0.77-2.86,1.36c-2.07,1.44-3.53,3.42-4.44,5.77c-1.61,4.15,0.09,7.2,4.5,7.91c2.09,0.33,4.24,0.45,6.37,0
			c1.69-0.34,3.37-0.74,5.06-1.07c2.11-0.4,4.05-1.24,5.94-2.27c5.97-3.24,8.25-5.12,9.85-6.56c-1.5,3.91-2.56,7.95-3.79,11.94
			c-0.15,0.47-0.23,0.96-0.27,1.46c-0.04,0.31,0.01,0.65,0.09,0.95c0.16,0.51,0.58,0.83,1.08,0.88c0.55,0.06,0.88-0.3,1.07-0.82
			c0.19-0.53,0.39-1.08,0.72-1.52c1.87-2.54,4.08-4.73,6.6-6.61c0,0,10.87-7.84,12.15-6.97c0.64,0.44,1.1,4.14-1.01,8.2
			c-5.51,2.6-14.49,6.86-17.51,8.42c-5.47,2.83-6.24,4.95,2.84,3.66c7.74-1.1,15.12-6.45,18.07-12.11c1.3-0.47,2.59-0.94,3.85-1.49
			c1.22-0.53,2.39-1.16,3.5-1.86c-0.21,0.48-0.39,0.98-0.56,1.49c-0.32,1.01-0.44,2.08-0.56,2.67c0.15,3.29,2.47,4.76,5.02,3.5
			c1.02-0.5,1.96-1.24,2.72-2.07c2.41-2.55,4.1-5.53,4.93-8.97c0.14-0.56,0.27-1.12,0.38-1.68c0.11-0.46,0.31-0.75,0.84-0.54
			c4.22,1.66,8.66,1.9,13.1,1.72c3.94-0.15,7.87-0.4,11.77-1.11c4.61-0.83,9.18-1.81,13.64-3.27c6.55-2.14,13.01-4.56,19.68-6.39
			c5.31-1.45,10.63-2.82,16.08-3.67c1.36-0.22,2.79-0.17,4.17-0.11c16.26,0.67,19.48,2.88,19.48,2.88h0.01
			c-1.02,0.96-1.16,3.27,0.66,3.47c2.18,0.24,2.43-2.42,1.32-3.47h0.03c-4.71-4.02-19.96-4.24-19.96-4.24
			c-1.55-0.07-3.12-0.02-4.67,0.12c-4.52,0.4-8.87,1.62-13.25,2.77c-6.84,1.8-13.51,4.1-20.18,6.42
			c-5.68,1.98-11.48,3.46-17.43,4.29c-5.61,0.76-11.28,1.27-16.96,0.82c-2.77-0.22-5.58-0.49-7.96-2.2
			c-0.42-0.29-1.06-0.03-1.19,0.48c-0.24,0.95-0.44,1.92-0.63,2.88c-0.68,3.24-2.26,5.97-4.66,8.23c-0.72,0.67-1.53,1.23-2.51,1.5
			c-0.51,0.13-1.04-0.3-0.92-0.82c0.17-0.8,0.38-1.6,0.67-2.36c1.19-3.07,3.21-5.52,5.63-7.69c0.43-0.38,0.9-0.73,1.28-1.16
			c0.42-0.45,0.29-1.1-0.19-1.52c-0.49-0.42-1.06-0.52-1.62-0.34c-0.62,0.2-1.25,0.46-1.77,0.83c-1.79,1.24-3.32,2.7-4.55,4.38
			c-2.4,1.94-5.12,3.37-8.07,4.42c0,0-0.09,0.04-0.25,0.12c0.94-2.85,0.65-5.66-1.39-7.94c-3.39-3.78-10.64,3.04-10.64,3.04
			c-1.14,0.8-4.9,4.93-5.99,5.81c-0.58,0.45-1.09,1-1.62,1.52c-0.74,0.72-0.87,0.76-0.89,0.46c-0.02-0.3,0.05-0.64,0.17-0.91
			c1.28-2.85,2.65-5.66,3.85-8.54c0.78-1.88,1.87-3.4,3.41-4.71c6.46-5.47,12.86-11,19.28-16.52c1.56-1.34,3.13-2.66,4.63-4.08
			c3.78-3.54,7.43-7.22,10.51-11.41c2.49-3.4,4.59-7.01,5.86-11.06c0.52-1.65,0.9-3.33,0.73-4.92c-0.1-1.74-0.47-3.25-1.25-4.64
			c-1.19-2.12-3.03-3.26-5.14-3.26C1036.39,481.92,1035.57,482.08,1034.74,482.39"/>
	</defs>
	<clipPath id="SVGID_5_">
		<use xlink:href="#SVGID_4_"  style="overflow:visible;"/>
	</clipPath>
	
		<linearGradient id="SVGID_6_" gradientUnits="userSpaceOnUse" x1="0.3364" y1="1081.5132" x2="1.3364" y2="1081.5132" gradientTransform="matrix(-494.1527 380.0721 380.0721 494.1527 -409633.6562 -534194.5625)">
		<stop  offset="0" style="stop-color:#926949"/>
		<stop  offset="0.5102" style="stop-color:#F1B177"/>
		<stop  offset="1" style="stop-color:#926949"/>
	</linearGradient>
	<polygon class="st1" points="1175.81,533.79 1026.28,648.79 921.54,512.6 1071.06,397.6 	"/>
</g>
</svg>
